<?xml version="1.0" encoding="utf-8"?>
<!-- Generator: Adobe Illustrator 24.1.2, SVG Export Plug-In . SVG Version: 6.00 Build 0)  -->
<svg version="1.1" id="Layer_1" xmlns="http://www.w3.org/2000/svg" xmlns:xlink="http://www.w3.org/1999/xlink" x="0px" y="0px"
	 viewBox="0 0 504 659" style="enable-background:new 0 0 504 659;" xml:space="preserve">
<style type="text/css">
	.st0{fill:url(#SVGID_1_);}
	.st1{fill:#DD2523;stroke:#B5B4B4;stroke-miterlimit:10;}
	.st2{fill:url(#SVGID_2_);}
	.st3{fill:url(#SVGID_3_);}
	.st4{fill:url(#SVGID_4_);}
	.st5{fill:url(#SVGID_5_);}
	.st6{fill:url(#SVGID_6_);}
	.st7{fill:url(#SVGID_7_);}
	.st8{fill:url(#SVGID_8_);}
	.st9{fill:url(#SVGID_9_);}
	.st10{fill:url(#SVGID_10_);}
	.st11{fill:url(#SVGID_11_);}
	.st12{fill:url(#SVGID_12_);}
</style>
<g id="grid">
	
		<linearGradient id="SVGID_1_" gradientUnits="userSpaceOnUse" x1="3.55" y1="575.345" x2="148.7" y2="575.345" gradientTransform="matrix(1 0 0 -1 0 660)">
		<stop  offset="0" style="stop-color:#FFFFFF"/>
		<stop  offset="5.000000e-02" style="stop-color:#FBF4E2"/>
		<stop  offset="0.14" style="stop-color:#F6E4B9"/>
		<stop  offset="0.23" style="stop-color:#F1D696"/>
		<stop  offset="0.31" style="stop-color:#EECC7C"/>
		<stop  offset="0.41" style="stop-color:#EBC569"/>
		<stop  offset="0.5" style="stop-color:#E9C05E"/>
		<stop  offset="0.6" style="stop-color:#E9BF5A"/>
		<stop  offset="0.67" style="stop-color:#EBC363"/>
		<stop  offset="0.78" style="stop-color:#F0CF7C"/>
		<stop  offset="0.93" style="stop-color:#F8E3A4"/>
		<stop  offset="1" style="stop-color:#FDEEBA"/>
	</linearGradient>
	<path class="st0" d="M148.7,18.6v132.1c0,3.6-2.9,6.5-6.5,6.5H10.1c-3.6,0-6.5-2.9-6.5-6.5V18.6c0-3.6,2.9-6.5,6.5-6.5h132.1
		C145.8,12.1,148.7,15,148.7,18.6z"/>
	<path class="st1" d="M142.7,25.9v117.6c0,4.2-3.4,7.6-7.6,7.6H17.5c-4.2,0-7.6-3.4-7.6-7.6V25.9c0-4.2,3.4-7.6,7.6-7.6h117.6
		C139.3,18.3,142.7,21.7,142.7,25.9z"/>
	
		<linearGradient id="SVGID_2_" gradientUnits="userSpaceOnUse" x1="3.55" y1="410.345" x2="148.7" y2="410.345" gradientTransform="matrix(1 0 0 -1 0 660.01)">
		<stop  offset="0" style="stop-color:#FFFFFF"/>
		<stop  offset="5.000000e-02" style="stop-color:#FBF4E2"/>
		<stop  offset="0.14" style="stop-color:#F6E4B9"/>
		<stop  offset="0.23" style="stop-color:#F1D696"/>
		<stop  offset="0.31" style="stop-color:#EECC7C"/>
		<stop  offset="0.41" style="stop-color:#EBC569"/>
		<stop  offset="0.5" style="stop-color:#E9C05E"/>
		<stop  offset="0.6" style="stop-color:#E9BF5A"/>
		<stop  offset="0.67" style="stop-color:#EBC363"/>
		<stop  offset="0.78" style="stop-color:#F0CF7C"/>
		<stop  offset="0.93" style="stop-color:#F8E3A4"/>
		<stop  offset="1" style="stop-color:#FDEEBA"/>
	</linearGradient>
	<path class="st2" d="M148.7,183.6v132.1c0,3.6-2.9,6.5-6.5,6.5H10.1c-3.6,0-6.5-2.9-6.5-6.5V183.6c0-3.6,2.9-6.5,6.5-6.5h132.1
		C145.8,177.1,148.7,180,148.7,183.6z"/>
	<path class="st1" d="M142.7,190.9v117.6c0,4.2-3.4,7.6-7.6,7.6H17.5c-4.2,0-7.6-3.4-7.6-7.6V190.9c0-4.2,3.4-7.6,7.6-7.6h117.6
		C139.3,183.3,142.7,186.7,142.7,190.9z"/>
	
		<linearGradient id="SVGID_3_" gradientUnits="userSpaceOnUse" x1="3.56" y1="245.345" x2="148.71" y2="245.345" gradientTransform="matrix(1 0 0 -1 -1.000977e-02 660.02)">
		<stop  offset="0" style="stop-color:#FFFFFF"/>
		<stop  offset="5.000000e-02" style="stop-color:#FBF4E2"/>
		<stop  offset="0.14" style="stop-color:#F6E4B9"/>
		<stop  offset="0.23" style="stop-color:#F1D696"/>
		<stop  offset="0.31" style="stop-color:#EECC7C"/>
		<stop  offset="0.41" style="stop-color:#EBC569"/>
		<stop  offset="0.5" style="stop-color:#E9C05E"/>
		<stop  offset="0.6" style="stop-color:#E9BF5A"/>
		<stop  offset="0.67" style="stop-color:#EBC363"/>
		<stop  offset="0.78" style="stop-color:#F0CF7C"/>
		<stop  offset="0.93" style="stop-color:#F8E3A4"/>
		<stop  offset="1" style="stop-color:#FDEEBA"/>
	</linearGradient>
	<path class="st3" d="M148.7,348.6v132.1c0,3.6-2.9,6.5-6.5,6.5H10.1c-3.6,0-6.5-2.9-6.5-6.5V348.6c0-3.6,2.9-6.5,6.5-6.5h132.1
		C145.8,342.1,148.7,345,148.7,348.6z"/>
	<path class="st1" d="M142.7,355.9v117.6c0,4.2-3.4,7.6-7.6,7.6H17.5c-4.2,0-7.6-3.4-7.6-7.6V355.9c0-4.2,3.4-7.6,7.6-7.6h117.6
		C139.3,348.3,142.7,351.7,142.7,355.9z"/>
	
		<linearGradient id="SVGID_4_" gradientUnits="userSpaceOnUse" x1="3.56" y1="80.345" x2="148.71" y2="80.345" gradientTransform="matrix(1 0 0 -1 -9.948730e-03 660.02)">
		<stop  offset="0" style="stop-color:#FFFFFF"/>
		<stop  offset="5.000000e-02" style="stop-color:#FBF4E2"/>
		<stop  offset="0.14" style="stop-color:#F6E4B9"/>
		<stop  offset="0.23" style="stop-color:#F1D696"/>
		<stop  offset="0.31" style="stop-color:#EECC7C"/>
		<stop  offset="0.41" style="stop-color:#EBC569"/>
		<stop  offset="0.5" style="stop-color:#E9C05E"/>
		<stop  offset="0.6" style="stop-color:#E9BF5A"/>
		<stop  offset="0.67" style="stop-color:#EBC363"/>
		<stop  offset="0.78" style="stop-color:#F0CF7C"/>
		<stop  offset="0.93" style="stop-color:#F8E3A4"/>
		<stop  offset="1" style="stop-color:#FDEEBA"/>
	</linearGradient>
	<path class="st4" d="M148.7,513.6v132.1c0,3.6-2.9,6.5-6.5,6.5H10.1c-3.6,0-6.5-2.9-6.5-6.5V513.6c0-3.6,2.9-6.5,6.5-6.5h132.1
		C145.8,507.1,148.7,510,148.7,513.6z"/>
	<path class="st1" d="M142.7,521v117.6c0,4.2-3.4,7.6-7.6,7.6H17.5c-4.2,0-7.6-3.4-7.6-7.6V521c0-4.2,3.4-7.6,7.6-7.6h117.6
		C139.3,513.3,142.7,516.7,142.7,521z"/>
	
		<linearGradient id="SVGID_5_" gradientUnits="userSpaceOnUse" x1="178.55" y1="574.355" x2="323.7" y2="574.355" gradientTransform="matrix(1 0 0 -1 0 660.02)">
		<stop  offset="0" style="stop-color:#FFFFFF"/>
		<stop  offset="5.000000e-02" style="stop-color:#FBF4E2"/>
		<stop  offset="0.14" style="stop-color:#F6E4B9"/>
		<stop  offset="0.23" style="stop-color:#F1D696"/>
		<stop  offset="0.31" style="stop-color:#EECC7C"/>
		<stop  offset="0.41" style="stop-color:#EBC569"/>
		<stop  offset="0.5" style="stop-color:#E9C05E"/>
		<stop  offset="0.6" style="stop-color:#E9BF5A"/>
		<stop  offset="0.67" style="stop-color:#EBC363"/>
		<stop  offset="0.78" style="stop-color:#F0CF7C"/>
		<stop  offset="0.93" style="stop-color:#F8E3A4"/>
		<stop  offset="1" style="stop-color:#FDEEBA"/>
	</linearGradient>
	<path class="st5" d="M323.7,19.6v132.1c0,3.6-2.9,6.5-6.5,6.5H185.1c-3.6,0-6.5-2.9-6.5-6.5V19.6c0-3.6,2.9-6.5,6.5-6.5h132.1
		C320.8,13.1,323.7,16,323.7,19.6z"/>
	<path class="st1" d="M317.7,26.9v117.6c0,4.2-3.4,7.6-7.6,7.6H192.5c-4.2,0-7.6-3.4-7.6-7.6V26.9c0-4.2,3.4-7.6,7.6-7.6h117.6
		C314.3,19.3,317.7,22.7,317.7,26.9z"/>
	
		<linearGradient id="SVGID_6_" gradientUnits="userSpaceOnUse" x1="178.55" y1="409.355" x2="323.7" y2="409.355" gradientTransform="matrix(1 0 0 -1 0 660.02)">
		<stop  offset="0" style="stop-color:#FFFFFF"/>
		<stop  offset="5.000000e-02" style="stop-color:#FBF4E2"/>
		<stop  offset="0.14" style="stop-color:#F6E4B9"/>
		<stop  offset="0.23" style="stop-color:#F1D696"/>
		<stop  offset="0.31" style="stop-color:#EECC7C"/>
		<stop  offset="0.41" style="stop-color:#EBC569"/>
		<stop  offset="0.5" style="stop-color:#E9C05E"/>
		<stop  offset="0.6" style="stop-color:#E9BF5A"/>
		<stop  offset="0.67" style="stop-color:#EBC363"/>
		<stop  offset="0.78" style="stop-color:#F0CF7C"/>
		<stop  offset="0.93" style="stop-color:#F8E3A4"/>
		<stop  offset="1" style="stop-color:#FDEEBA"/>
	</linearGradient>
	<path class="st6" d="M323.7,184.6v132.1c0,3.6-2.9,6.5-6.5,6.5H185.1c-3.6,0-6.5-2.9-6.5-6.5V184.6c0-3.6,2.9-6.5,6.5-6.5h132.1
		C320.8,178.1,323.7,181,323.7,184.6z"/>
	<path class="st1" d="M317.7,191.9v117.6c0,4.2-3.4,7.6-7.6,7.6H192.5c-4.2,0-7.6-3.4-7.6-7.6V191.9c0-4.2,3.4-7.6,7.6-7.6h117.6
		C314.3,184.3,317.7,187.7,317.7,191.9z"/>
	
		<linearGradient id="SVGID_7_" gradientUnits="userSpaceOnUse" x1="178.56" y1="244.355" x2="323.71" y2="244.355" gradientTransform="matrix(1 0 0 -1 -9.948730e-03 660.03)">
		<stop  offset="0" style="stop-color:#FFFFFF"/>
		<stop  offset="5.000000e-02" style="stop-color:#FBF4E2"/>
		<stop  offset="0.14" style="stop-color:#F6E4B9"/>
		<stop  offset="0.23" style="stop-color:#F1D696"/>
		<stop  offset="0.31" style="stop-color:#EECC7C"/>
		<stop  offset="0.41" style="stop-color:#EBC569"/>
		<stop  offset="0.5" style="stop-color:#E9C05E"/>
		<stop  offset="0.6" style="stop-color:#E9BF5A"/>
		<stop  offset="0.67" style="stop-color:#EBC363"/>
		<stop  offset="0.78" style="stop-color:#F0CF7C"/>
		<stop  offset="0.93" style="stop-color:#F8E3A4"/>
		<stop  offset="1" style="stop-color:#FDEEBA"/>
	</linearGradient>
	<path class="st7" d="M323.7,349.6v132.1c0,3.6-2.9,6.5-6.5,6.5H185.1c-3.6,0-6.5-2.9-6.5-6.5V349.6c0-3.6,2.9-6.5,6.5-6.5h132.1
		C320.8,343.1,323.7,346,323.7,349.6z"/>
	<path class="st1" d="M317.7,356.9v117.6c0,4.2-3.4,7.6-7.6,7.6H192.5c-4.2,0-7.6-3.4-7.6-7.6V356.9c0-4.2,3.4-7.6,7.6-7.6h117.6
		C314.3,349.3,317.7,352.7,317.7,356.9z"/>
	
		<linearGradient id="SVGID_8_" gradientUnits="userSpaceOnUse" x1="178.56" y1="79.355" x2="323.71" y2="79.355" gradientTransform="matrix(1 0 0 -1 -9.948730e-03 660.03)">
		<stop  offset="0" style="stop-color:#FFFFFF"/>
		<stop  offset="5.000000e-02" style="stop-color:#FBF4E2"/>
		<stop  offset="0.14" style="stop-color:#F6E4B9"/>
		<stop  offset="0.23" style="stop-color:#F1D696"/>
		<stop  offset="0.31" style="stop-color:#EECC7C"/>
		<stop  offset="0.41" style="stop-color:#EBC569"/>
		<stop  offset="0.5" style="stop-color:#E9C05E"/>
		<stop  offset="0.6" style="stop-color:#E9BF5A"/>
		<stop  offset="0.67" style="stop-color:#EBC363"/>
		<stop  offset="0.78" style="stop-color:#F0CF7C"/>
		<stop  offset="0.93" style="stop-color:#F8E3A4"/>
		<stop  offset="1" style="stop-color:#FDEEBA"/>
	</linearGradient>
	<path class="st8" d="M323.7,514.6v132.1c0,3.6-2.9,6.5-6.5,6.5H185.1c-3.6,0-6.5-2.9-6.5-6.5V514.6c0-3.6,2.9-6.5,6.5-6.5h132.1
		C320.8,508.1,323.7,511,323.7,514.6z"/>
	<path class="st1" d="M317.7,522v117.6c0,4.2-3.4,7.6-7.6,7.6H192.5c-4.2,0-7.6-3.4-7.6-7.6V522c0-4.2,3.4-7.6,7.6-7.6h117.6
		C314.3,514.3,317.7,517.7,317.7,522z"/>
	
		<linearGradient id="SVGID_9_" gradientUnits="userSpaceOnUse" x1="353.55" y1="573.355" x2="498.7" y2="573.355" gradientTransform="matrix(1 0 0 -1 9.948730e-03 660.02)">
		<stop  offset="0" style="stop-color:#FFFFFF"/>
		<stop  offset="5.000000e-02" style="stop-color:#FBF4E2"/>
		<stop  offset="0.14" style="stop-color:#F6E4B9"/>
		<stop  offset="0.23" style="stop-color:#F1D696"/>
		<stop  offset="0.31" style="stop-color:#EECC7C"/>
		<stop  offset="0.41" style="stop-color:#EBC569"/>
		<stop  offset="0.5" style="stop-color:#E9C05E"/>
		<stop  offset="0.6" style="stop-color:#E9BF5A"/>
		<stop  offset="0.67" style="stop-color:#EBC363"/>
		<stop  offset="0.78" style="stop-color:#F0CF7C"/>
		<stop  offset="0.93" style="stop-color:#F8E3A4"/>
		<stop  offset="1" style="stop-color:#FDEEBA"/>
	</linearGradient>
	<path class="st9" d="M498.7,20.6v132.1c0,3.6-2.9,6.5-6.5,6.5H360.1c-3.6,0-6.5-2.9-6.5-6.5V20.6c0-3.6,2.9-6.5,6.5-6.5h132.1
		C495.8,14.1,498.7,17,498.7,20.6z"/>
	<path class="st1" d="M492.7,27.9v117.6c0,4.2-3.4,7.6-7.6,7.6H367.5c-4.2,0-7.6-3.4-7.6-7.6V27.9c0-4.2,3.4-7.6,7.6-7.6h117.6
		C489.3,20.3,492.7,23.7,492.7,27.9z"/>
	
		<linearGradient id="SVGID_10_" gradientUnits="userSpaceOnUse" x1="353.55" y1="408.355" x2="498.7" y2="408.355" gradientTransform="matrix(1 0 0 -1 9.948730e-03 660.02)">
		<stop  offset="0" style="stop-color:#FFFFFF"/>
		<stop  offset="5.000000e-02" style="stop-color:#FBF4E2"/>
		<stop  offset="0.14" style="stop-color:#F6E4B9"/>
		<stop  offset="0.23" style="stop-color:#F1D696"/>
		<stop  offset="0.31" style="stop-color:#EECC7C"/>
		<stop  offset="0.41" style="stop-color:#EBC569"/>
		<stop  offset="0.5" style="stop-color:#E9C05E"/>
		<stop  offset="0.6" style="stop-color:#E9BF5A"/>
		<stop  offset="0.67" style="stop-color:#EBC363"/>
		<stop  offset="0.78" style="stop-color:#F0CF7C"/>
		<stop  offset="0.93" style="stop-color:#F8E3A4"/>
		<stop  offset="1" style="stop-color:#FDEEBA"/>
	</linearGradient>
	<path class="st10" d="M498.7,185.6v132.1c0,3.6-2.9,6.5-6.5,6.5H360.1c-3.6,0-6.5-2.9-6.5-6.5V185.6c0-3.6,2.9-6.5,6.5-6.5h132.1
		C495.8,179.1,498.7,182,498.7,185.6z"/>
	<path class="st1" d="M492.7,192.9v117.6c0,4.2-3.4,7.6-7.6,7.6H367.5c-4.2,0-7.6-3.4-7.6-7.6V192.9c0-4.2,3.4-7.6,7.6-7.6h117.6
		C489.3,185.3,492.7,188.7,492.7,192.9z"/>
	
		<linearGradient id="SVGID_11_" gradientUnits="userSpaceOnUse" x1="353.56" y1="243.355" x2="498.71" y2="243.355" gradientTransform="matrix(1 0 0 -1 0 660.03)">
		<stop  offset="0" style="stop-color:#FFFFFF"/>
		<stop  offset="5.000000e-02" style="stop-color:#FBF4E2"/>
		<stop  offset="0.14" style="stop-color:#F6E4B9"/>
		<stop  offset="0.23" style="stop-color:#F1D696"/>
		<stop  offset="0.31" style="stop-color:#EECC7C"/>
		<stop  offset="0.41" style="stop-color:#EBC569"/>
		<stop  offset="0.5" style="stop-color:#E9C05E"/>
		<stop  offset="0.6" style="stop-color:#E9BF5A"/>
		<stop  offset="0.67" style="stop-color:#EBC363"/>
		<stop  offset="0.78" style="stop-color:#F0CF7C"/>
		<stop  offset="0.93" style="stop-color:#F8E3A4"/>
		<stop  offset="1" style="stop-color:#FDEEBA"/>
	</linearGradient>
	<path class="st11" d="M498.7,350.6v132.1c0,3.6-2.9,6.5-6.5,6.5H360.1c-3.6,0-6.5-2.9-6.5-6.5V350.6c0-3.6,2.9-6.5,6.5-6.5h132.1
		C495.8,344.1,498.7,347,498.7,350.6z"/>
	<path class="st1" d="M492.7,357.9v117.6c0,4.2-3.4,7.6-7.6,7.6H367.5c-4.2,0-7.6-3.4-7.6-7.6V357.9c0-4.2,3.4-7.6,7.6-7.6h117.6
		C489.3,350.3,492.7,353.7,492.7,357.9z"/>
	
		<linearGradient id="SVGID_12_" gradientUnits="userSpaceOnUse" x1="353.56" y1="78.355" x2="498.71" y2="78.355" gradientTransform="matrix(1 0 0 -1 0 660.03)">
		<stop  offset="0" style="stop-color:#FFFFFF"/>
		<stop  offset="5.000000e-02" style="stop-color:#FBF4E2"/>
		<stop  offset="0.14" style="stop-color:#F6E4B9"/>
		<stop  offset="0.23" style="stop-color:#F1D696"/>
		<stop  offset="0.31" style="stop-color:#EECC7C"/>
		<stop  offset="0.41" style="stop-color:#EBC569"/>
		<stop  offset="0.5" style="stop-color:#E9C05E"/>
		<stop  offset="0.6" style="stop-color:#E9BF5A"/>
		<stop  offset="0.67" style="stop-color:#EBC363"/>
		<stop  offset="0.78" style="stop-color:#F0CF7C"/>
		<stop  offset="0.93" style="stop-color:#F8E3A4"/>
		<stop  offset="1" style="stop-color:#FDEEBA"/>
	</linearGradient>
	<path class="st12" d="M498.7,515.6v132.1c0,3.6-2.9,6.5-6.5,6.5H360.1c-3.6,0-6.5-2.9-6.5-6.5V515.6c0-3.6,2.9-6.5,6.5-6.5h132.1
		C495.8,509.1,498.7,512,498.7,515.6z"/>
	<path class="st1" d="M492.7,522.9v117.6c0,4.2-3.4,7.6-7.6,7.6H367.5c-4.2,0-7.6-3.4-7.6-7.6V522.9c0-4.2,3.4-7.6,7.6-7.6h117.6
		C489.3,515.3,492.7,518.7,492.7,522.9z"/>
</g>
</svg>
