<?xml version="1.0" encoding="utf-8"?>
<!-- Generator: Adobe Illustrator 24.1.2, SVG Export Plug-In . SVG Version: 6.00 Build 0)  -->
<svg version="1.1" id="Layer_1" xmlns="http://www.w3.org/2000/svg" xmlns:xlink="http://www.w3.org/1999/xlink" x="0px" y="0px"
	 viewBox="0 0 273 273" style="enable-background:new 0 0 273 273;" xml:space="preserve">
<style type="text/css">
	.st0{fill:#FFFFFF;}
</style>
<path class="st0" d="M5,51.3c87.7,0,175.3,0,263.1,0c0,54.9,0,109.8,0,164.7c-1,0-2-0.1-3.1-0.1c-85.6,0-171.2,0-256.8,0
	c-1,0-2,0-3.2,0C5,160.9,5,106.1,5,51.3z M117.3,214.9c0-54.3,0-108.5,0-162.6c-9.1,0-18.1,0-27.3,0c0,31.1,0,62.1,0,93.3
	c-3.1,0-6,0-8.9,0c0,23.3,0,46.3,0,69.3C93.3,214.9,105.2,214.9,117.3,214.9z M5.9,52.2c0,54.3,0,108.5,0,162.7
	c12.1,0,24.1,0,36.2,0c0-23.1,0-46,0-69.3c-2.9,0-5.7,0-8.8,0c0-31.3,0-62.3,0-93.4C24.1,52.2,15.1,52.2,5.9,52.2z M145.6,52.4
	c-9.2,0-18.2,0-27.1,0c0,54.3,0,108.4,0,162.5c12.2,0,24.2,0,36.3,0c0-23.2,0-46.2,0-69.5c-3.1,0-6,0-9.2,0
	C145.6,114.3,145.6,83.3,145.6,52.4z M239.9,52.3c0,31.2,0,62.1,0,93.4c-3,0-5.8,0-8.7,0c0,23.2,0,46.2,0,69.3c12.1,0,23.9,0,35.9,0
	c0-54.3,0-108.4,0-162.6C258.1,52.3,249.2,52.3,239.9,52.3z M202,52.2c0,31.3,0,62.4,0,93.8c-3.2,0-6.1,0-8.9,0c0,23.1,0,46,0,69
	c12.4,0,24.5,0,36.9,0c0-23.1,0-46.1,0-69.4c-3.2,0-6.2,0-9.4,0c0-31.3,0-62.3,0-93.3C214.4,52.2,208.4,52.2,202,52.2z M43.2,145.7
	c0,23.2,0,46.2,0,69.2c12.3,0,24.4,0,36.7,0c0-23.1,0-46.1,0-69.4c-3.1,0-6.1,0-9.3,0c0-31.3,0-62.3,0-93.2c-6.1,0-12,0-18,0
	c0,31.2,0,62.1,0,93.4C49.4,145.7,46.3,145.7,43.2,145.7z M164.9,52.3c0,31.1,0,62.1,0,93.3c-3.2,0-6.1,0-9,0c0,23.2,0,46.2,0,69.4
	c12.1,0,24,0,36.1,0c0-23,0-45.9,0-69c-3.1,0-6,0-9.2,0c0-31.3,0-62.4,0-93.6C176.8,52.3,171,52.3,164.9,52.3z"/>
</svg>
