<?xml version="1.0" encoding="utf-8"?>
<!-- Generator: Adobe Illustrator 24.1.2, SVG Export Plug-In . SVG Version: 6.00 Build 0)  -->
<svg version="1.1" id="Layer_1" xmlns="http://www.w3.org/2000/svg" xmlns:xlink="http://www.w3.org/1999/xlink" x="0px" y="0px"
	 viewBox="0 0 273 273" style="enable-background:new 0 0 273 273;" xml:space="preserve">
<style type="text/css">
	.st0{fill:#FFFFFF;}
</style>
<g>
	<path class="st0" d="M49.3,205.5c0,14.2,11,22.6,22.9,18.2c7-2.6,13.5-7.5,19.4-12.4c9.5-8,19.2-14.6,32.3-14.5
		c17.3,0.1,30.4,13.8,26.4,30.6c-2.4,9.9-9.1,18.8-14.5,27.7c-1,1.6-5.3,1.1-8.1,1.5c0.3-2.6-0.1-5.6,1-7.7
		c3.3-6,7.8-11.3,10.8-17.5c3.3-7,2.5-14.2-3-20.1c-5.7-6.1-13.4-6.5-20-3.5c-7.4,3.4-14.3,8.4-20.7,13.7
		c-11.1,9.1-22.6,16.2-37.8,11.5c-14.7-4.5-21.6-17.7-17.1-32.4c0.4-1.3,1.2-3,0.8-4c-4-10.5,0.9-18,7.4-25.7
		c22.7-27.3,45.1-54.8,67.2-82.5c2.6-3.3,4.3-8.6,4-12.9c-2.5-34.2,22.4-62.4,56.4-63c31.9-0.6,58.3,26.2,57.5,58.5
		c-0.7,31-26.4,55.5-58.3,54.7c-6.6-0.2-11.4,1.7-16.3,5.8c-27.3,22.6-55,44.8-82.4,67.3C69,205.6,61.2,212.1,49.3,205.5z
		 M224.1,69.9c0-25.9-21.6-47.9-46.9-47.9c-25.8,0-47.1,21.4-47.1,47.4c0,26.2,21.1,47.3,47.1,47C203,116.1,224.1,95.2,224.1,69.9z
		 M123.6,95.6c0.4-0.3-0.4,0-0.9,0.6c-23.5,28.7-47,57.5-70.5,86.2c-3.8,4.7-3.3,8.7,0.9,12.9c4.1,4,7.9,3.6,12.1,0.1
		c14.2-11.7,28.6-23.2,42.9-34.8c15.3-12.5,30.6-25,45-36.7C143.1,114.2,133.5,105.1,123.6,95.6z"/>
	<path class="st0" d="M214.2,71.7c-3.6,7.9-6.3,15.1-10,21.6c-1,1.7-5.2,1.4-8,2c0.1-2.6-0.8-5.8,0.5-7.6c8-11.3,8-22.2-0.1-33.5
		c-1.2-1.7-0.2-5-0.3-7.5c2.7,0.7,7,0.5,7.9,2.1C208,56,210.8,63.7,214.2,71.7z"/>
</g>
</svg>
