<?xml version="1.0" encoding="utf-8"?>
<!-- Generator: Adobe Illustrator 24.1.2, SVG Export Plug-In . SVG Version: 6.00 Build 0)  -->
<svg version="1.1" id="Layer_1" xmlns="http://www.w3.org/2000/svg" xmlns:xlink="http://www.w3.org/1999/xlink" x="0px" y="0px"
	 viewBox="0 0 273 273" style="enable-background:new 0 0 273 273;" xml:space="preserve">
<style type="text/css">
	.st0{fill:#FFFFFF;}
</style>
<g>
	<path class="st0" d="M130.6,123.6c-21.2,0-42.3,0-63.5,0c-2.5,0-5,0-7.5-0.2c-6.4-0.5-11-5-11-11.3c-0.1-14.7-0.1-29.3,0-44
		c0.1-5.6,3.8-9.7,9.3-10.8c1.9-0.4,4-0.5,5.9-0.5c27.5,0,55,0,82.4,0c1.7,0,3.3,0.1,5,0.4c1.5,0.3,2.3,1.3,2.4,2.8
		c0.1,1.8-1,2.9-2.6,3.2c-1.5,0.3-3,0.2-4.5,0.2c-27.6,0-55.3,0.2-82.9-0.1c-7.6-0.1-9,2.4-8.9,9.1c0.2,12.2,0,24.3,0.1,36.5
		c0,1.3-0.1,2.7,0.2,4c0.6,2.8,2.5,4,5.4,3.9c2.2-0.1,4.3-0.2,6.5-0.2c43.5,0,86.9-0.1,130.4,0c7.4,0,8.4-1.1,8.3-8.2
		c-0.2-12.7-0.2-25.3,0-38c0.1-6.3-2.2-7.2-7.4-7.1c-8.3,0.2-16.7,0.1-25,0c-1.2,0-2.3,0.1-3.5-0.1c-1.7-0.3-2.6-1.5-2.6-3.2
		c0-1.5,0.7-2.6,2.2-2.9c1.1-0.3,2.3-0.4,3.4-0.4c8.5,0,17-0.1,25.5,0c2.1,0,4.4,0.2,6.4,0.9c4.1,1.4,6.6,4.5,7.5,8.7
		c0.4,1.6,0.4,3.3,0.4,5c0,13-0.3,26,0.1,39c0.2,8.1-6,13.5-13.3,13.4C176.5,123.4,153.5,123.6,130.6,123.6z"/>
	<path class="st0" d="M133.6,220.6c0,5.8,0,11.3,0,16.8c0,1.6,0.9,2.4,1.9,3.3c2,1.8,2.8,4,2.3,6.7c-0.6,3.2-2.7,5.5-5.8,6.1
		c-3.3,0.6-6.1-0.5-7.9-3.1c-1.8-2.7-2.1-6.2,0.2-8.3c3.1-2.7,3.1-5.9,3-9.4c-0.1-3.9,0-7.9,0-12.5c-2.9,2.1-5.2,3.7-7.5,5.3
		c-7,5-14,10.1-21.1,15.1c-2,1.4-3.2,2.7-3,5.6c0.3,4.3-2.5,7.1-6.4,7.4c-4.2,0.4-7.4-2-8.3-6.2c-0.8-3.8,2.1-8.3,6.4-8.6
		c3.3-0.2,5.5-1.9,7.9-3.6c9.5-6.8,18.9-13.7,28.4-20.3c2.6-1.8,3.7-3.7,3.6-6.9c-0.2-23.7-0.1-47.3-0.1-71c0-1.5,0-3,0.2-4.5
		c0.2-1.5,1.4-2.2,2.9-2.2c1.5,0,2.7,0.7,2.9,2.2c0.3,1.5,0.2,3,0.2,4.5c0,23.5,0.1,47-0.1,70.5c0,3.5,1,5.7,3.9,7.8
		c9.7,6.8,19.1,13.9,28.6,20.9c1.9,1.4,3.7,2.3,6.3,2.6c5.6,0.5,8.5,5.7,6.3,10.5c-1.5,3.3-4.5,4.9-8.1,4.3c-3.5-0.5-6.2-3.1-6-6.8
		c0.2-3.2-1.1-4.7-3.4-6.4c-8.6-6.1-16.9-12.4-25.4-18.5C135.2,221.4,134.6,221.1,133.6,220.6z"/>
	<path class="st0" d="M110.9,50c-2.8,0.1-5.8-1.9-6.9-4.6c-1.2-2.8-0.5-6.2,1.7-8.3c2.1-2.1,5.8-3.2,8.2-1.4
		c3.4,2.5,6.7,1.8,10.4,1.1c22.9-4.2,45.7-8.3,68.6-12.4c8.2-1.5,16.3-3.1,24.5-4.6c1.5-0.3,3-0.4,4.5-0.4c1.5,0,2.4,1,2.7,2.5
		c0.2,1.5-0.4,2.7-1.8,3.2c-1.4,0.5-2.9,0.7-4.4,1c-22.9,4.2-45.7,8.3-68.6,12.4c-9.3,1.7-18.6,3.4-27.9,5.1
		c-2.1,0.4-3.7,1.2-4.8,3.1C115.8,49,113.5,49.7,110.9,50z"/>
	<path class="st0" d="M116.6,90.2c0,5.2,0,10.3,0,15.5c0,1,0.1,2-0.1,3c-0.3,1.9-1.5,3-3.3,3.2c-1.7,0.2-3.4-1.3-3.7-3.3
		c-0.1-1-0.1-2-0.1-3c0-10.5,0-21,0-31.5c0-1-0.1-2,0.1-3c0.2-1.9,1.4-3,3.3-3.2c1.8-0.2,3.4,1.2,3.7,3.3c0.1,1,0.1,2,0.1,3
		C116.6,79.6,116.6,84.9,116.6,90.2z"/>
	<path class="st0" d="M75.4,89.9c0-5,0-10,0-15c0-1-0.1-2,0-3c0.2-2.3,1.3-3.8,3-4c1.9-0.3,3.6,1.2,4,3.6c0.2,1,0.1,2,0.1,3
		c0,10.3,0,20.6,0,30.9c0,1.5,0,3.1-0.7,4.3c-0.5,1-1.9,1.9-3,2.1c-1.5,0.2-2.9-0.9-3.2-2.5c-0.2-1.1-0.2-2.3-0.2-3.5
		C75.4,100.5,75.4,95.2,75.4,89.9z"/>
	<path class="st0" d="M150.7,90.2c0,5.2,0,10.3,0,15.5c0,1.2,0.1,2.3-0.2,3.5c-0.3,1.7-1.5,2.6-3.1,2.7c-1.7,0.2-2.9-0.8-3.3-2.4
		c-0.3-1.1-0.4-2.3-0.4-3.4c0-10.8,0-21.6,0-32.4c0-1.1,0.1-2.3,0.5-3.4c0.5-1.6,1.7-2.5,3.4-2.3c1.6,0.2,2.8,1.1,3.1,2.8
		c0.2,1.1,0.1,2.3,0.1,3.5C150.7,79.6,150.7,84.9,150.7,90.2z"/>
	<path class="st0" d="M184.7,90c0,5.3,0,10.6,0,15.9c0,1,0,2-0.1,3c-0.2,1.7-1.2,2.7-3,2.8c-1.7,0.1-3-0.4-3.5-2.1
		c-0.3-1.1-0.5-2.3-0.5-3.4c0-10.8,0-21.6,0-32.4c0-1.3,0.1-2.8,0.7-3.8c0.6-1,1.9-1.9,3.1-2c1.6-0.2,2.8,1,3.1,2.6
		c0.2,1.1,0.2,2.3,0.2,3.5C184.7,79.3,184.7,84.7,184.7,90z"/>
</g>
</svg>
