<?xml version="1.0" encoding="utf-8"?>
<!-- Generator: Adobe Illustrator 24.1.2, SVG Export Plug-In . SVG Version: 6.00 Build 0)  -->
<svg version="1.1" id="Layer_1" xmlns="http://www.w3.org/2000/svg" xmlns:xlink="http://www.w3.org/1999/xlink" x="0px" y="0px"
	 viewBox="0 0 273 273" style="enable-background:new 0 0 273 273;" xml:space="preserve">
<style type="text/css">
	.st0{fill:#FFFFFF;}
</style>
<path class="st0" d="M203.2,269.1c-2.5-1.1-3.3-3.1-3.5-5.7c-0.8-9.3-1.8-18.5-2.8-27.7c-0.8-8.4-1.7-16.8-2.5-25.2
	c-0.9-9.4-1.9-18.8-2.8-28.1c-0.8-8.4-1.7-16.7-2.5-25.1c-0.9-9.5-1.9-19-2.8-28.5c-0.8-8.4-1.7-16.7-2.5-25.1
	c-0.9-8.6-1.7-17.3-2.6-25.9c-0.8-8.5-1.7-17.1-2.5-25.6c-0.1-1.4-0.3-2.9-0.7-4.3c-0.7,4.6-1.5,9.2-2.2,13.8
	c-1.9,12.5-3.8,25.1-5.7,37.6c-1.8,11.9-3.6,23.9-5.4,35.8c-1.8,11.8-3.6,23.7-5.4,35.5c-1.6,10.4-3.3,20.9-4.9,31.3
	c-0.1,0.7-0.2,1.3-0.3,2c-0.5,2.4-2.1,3.8-4.4,3.8c-2.4,0-4.1-1.4-4.6-3.8c-0.8-4.5-1.7-9-2.4-13.6c-2.6-16.1-5.3-32.1-7.9-48.2
	c-1.3-8.1-2.7-16.2-4.1-24.3c-0.1-0.5-0.2-0.9-0.4-1.8c-0.3,0.9-0.5,1.4-0.7,2c-2.1,6.6-4.2,13.1-6.4,19.7c-0.2,0.6-0.4,1.2-0.7,1.7
	c-0.7,1.6-1.8,2.5-3.8,2.4c-36.9-0.1-73.8,0-110.6,0c-0.6,0-1.2,0-1.9,0.1c0-3.2,0-6.4,0-9.6c0.5,0,1.1,0.1,1.6,0.1
	c35.2,0,70.5,0,105.7,0c1.3,0,1.8-0.3,2.2-1.6c3.7-11.8,7.4-23.6,11.1-35.4c0.3-1,0.7-1.9,1.1-2.8c0.7-1.7,2.1-2.4,4.2-2.2
	c2,0.2,3.5,1.3,3.8,3.1c1.8,10.1,3.6,20.3,5.3,30.5c2.5,15.1,5,30.3,7.5,45.4c0.1,0.4,0.2,0.9,0.5,1.3c0.4-2.5,0.9-5,1.3-7.5
	c2.3-14.3,4.6-28.7,6.8-43c2-13,4-26,6-39c2.2-14.2,4.3-28.4,6.6-42.6c1.6-9.9,3.2-19.7,4.8-29.6c0.1-0.7,0.3-1.3,0.4-1.9
	c0.6-2.1,1.8-3.1,4-3c2.2,0.1,3.7,1.1,4,3.3c0.7,5,1.4,10.1,1.9,15.1c1,9.2,1.9,18.3,2.8,27.5c0.9,8.4,1.7,16.8,2.5,25.2
	c0.9,9.4,1.9,18.8,2.8,28.1c0.8,8.4,1.7,16.8,2.5,25.2c0.9,8.6,1.7,17.3,2.6,25.9c0.8,8.5,1.7,17,2.5,25.5c0.9,9.5,1.9,19,2.8,28.5
	c0.4,4.3,0.8,8.5,1.3,13.2c0.2-0.6,0.4-0.8,0.4-1c2-14.8,4-29.6,5.9-44.3c1.6-12,3.1-24,4.7-36.1c0.1-1,0.1-2,0.4-3
	c0.2-0.9,0.6-1.9,1.1-2.6c1-1.6,2.4-2.2,4.4-2.2c14.4,0.1,28.8,0.1,43.2,0.1c0.6,0,1.1,0,1.7,0c0,3.2,0,6.2,0,9.4c-0.5,0-1,0-1.6,0
	c-12.8,0-25.7,0-38.5,0c-1.1,0-1.5,0.3-1.6,1.4c-1.7,13.4-3.5,26.8-5.2,40.1c-1.7,13.3-3.4,26.5-5.2,39.8
	c-1.9,14.2-3.9,28.4-5.8,42.6c-0.3,2-1.6,2.8-3.2,3.4C204.8,269.1,204,269.1,203.2,269.1z"/>
</svg>
