<?xml version="1.0" encoding="utf-8"?>
<!-- Generator: Adobe Illustrator 24.1.2, SVG Export Plug-In . SVG Version: 6.00 Build 0)  -->
<svg version="1.1" id="Layer_1" xmlns="http://www.w3.org/2000/svg" xmlns:xlink="http://www.w3.org/1999/xlink" x="0px" y="0px"
	 viewBox="0 0 273 273" style="enable-background:new 0 0 273 273;" xml:space="preserve">
<style type="text/css">
	.st0{fill:#FFFFFF;}
</style>
<path class="st0" d="M5,54.1c87.7,0,175.3,0,263.1,0c0,54.9,0,109.8,0,164.7c-1,0-2-0.1-3.1-0.1c-85.6,0-171.2,0-256.8,0
	c-1,0-2,0-3.2,0C5,163.7,5,108.9,5,54.1z M117.3,217.8c0-54.3,0-108.5,0-162.6c-9.1,0-18.1,0-27.3,0c0,31.1,0,62.1,0,93.3
	c-3.1,0-6,0-8.9,0c0,23.3,0,46.3,0,69.3C93.3,217.8,105.2,217.8,117.3,217.8z M5.9,55.1c0,54.3,0,108.5,0,162.7
	c12.1,0,24.1,0,36.2,0c0-23.1,0-46,0-69.3c-2.9,0-5.7,0-8.8,0c0-31.3,0-62.3,0-93.4C24.1,55.1,15.1,55.1,5.9,55.1z M145.6,55.2
	c-9.2,0-18.2,0-27.1,0c0,54.3,0,108.4,0,162.5c12.2,0,24.2,0,36.3,0c0-23.2,0-46.2,0-69.5c-3.1,0-6,0-9.2,0
	C145.6,117.1,145.6,86.2,145.6,55.2z M239.9,55.1c0,31.2,0,62.1,0,93.4c-3,0-5.8,0-8.7,0c0,23.2,0,46.2,0,69.3c12.1,0,23.9,0,35.9,0
	c0-54.3,0-108.4,0-162.6C258.1,55.1,249.2,55.1,239.9,55.1z M202,55.1c0,31.3,0,62.4,0,93.8c-3.2,0-6.1,0-8.9,0c0,23.1,0,46,0,69
	c12.4,0,24.5,0,36.9,0c0-23.1,0-46.1,0-69.4c-3.2,0-6.2,0-9.4,0c0-31.3,0-62.3,0-93.3C214.4,55.1,208.4,55.1,202,55.1z M43.2,148.6
	c0,23.2,0,46.2,0,69.2c12.3,0,24.4,0,36.7,0c0-23.1,0-46.1,0-69.4c-3.1,0-6.1,0-9.3,0c0-31.3,0-62.3,0-93.2c-6.1,0-12,0-18,0
	c0,31.2,0,62.1,0,93.4C49.4,148.6,46.3,148.6,43.2,148.6z M164.9,55.1c0,31.1,0,62.1,0,93.3c-3.2,0-6.1,0-9,0c0,23.2,0,46.2,0,69.4
	c12.1,0,24,0,36.1,0c0-23,0-45.9,0-69c-3.1,0-6,0-9.2,0c0-31.3,0-62.4,0-93.6C176.8,55.1,171,55.1,164.9,55.1z"/>
</svg>
