<?xml version="1.0" encoding="utf-8"?>
<!-- Generator: Adobe Illustrator 24.0.2, SVG Export Plug-In . SVG Version: 6.00 Build 0)  -->
<svg version="1.1" id="Layer_1" xmlns="http://www.w3.org/2000/svg" xmlns:xlink="http://www.w3.org/1999/xlink" x="0px" y="0px"
	 viewBox="0 0 901 227" style="enable-background:new 0 0 901 227;" xml:space="preserve">
<style type="text/css">
	.st0{fill:#FDDD56;}
	.st1{fill:none;stroke:#ECDF80;stroke-width:4;stroke-miterlimit:10;}
	.st2{fill:none;stroke:#ECDF80;stroke-width:6;stroke-linecap:round;stroke-miterlimit:10;}
	.st3{fill:none;stroke:#ECDF80;stroke-width:3;stroke-linecap:round;stroke-miterlimit:10;}
</style>
<g>
	<path class="st0" d="M77.1,136H66.6c3.8-5.9,5.7-12.7,5.7-19.7c0-18.7-14.3-34.6-32.6-36.8V136h-9.2V79.7c-2,0.1-3.9,0.6-5.9,1.2
		L22,72.2c2.8-0.9,5.6-1.6,8.5-1.7V43.7h4.5c9.5,0,17.5,7.9,17.5,17.5c0,4-1.5,7.9-3.9,11c18.7,5.5,32.9,23.6,32.9,44.2
		C81.5,123.1,79.9,129.9,77.1,136z M43.4,61.8c0-4-1.6-6-3.7-7.5v13.6C42.1,66.4,43.1,64.2,43.4,61.8z"/>
	<path class="st0" d="M132.3,136c-25.3,0-46.2-20.9-46.2-46.2c0-25.2,20.9-46.2,46.2-46.2c25.2,0,46.2,21,46.2,46.2
		C178.5,115.2,157.5,136,132.3,136z M132.3,52.9c-20.2,0-37,16.9-37,37c0,20.2,16.9,36.9,37,36.9c20,0,36.9-16.9,36.9-36.9
		C169.2,69.7,152.5,52.9,132.3,52.9z"/>
	<path class="st0" d="M233.4,109.5V136h-9.3v-26.5h-30.5V136h-9.3v-24.8c0-27.7,17.3-53.4,42.7-64l6.4-2.7v55.7h5.3v9.3H233.4z
		 M224.2,58.9c-15.5,8.9-26.3,24.2-29.6,41.4h29.6V58.9z"/>
	<path class="st0" d="M297.6,136h-10.5c3.8-5.9,5.7-12.7,5.7-19.7c0-18.7-14.3-34.6-32.6-36.8V136H251V79.7c-2,0.1-3.9,0.6-5.9,1.2
		l-2.7-8.8c2.8-0.9,5.6-1.6,8.5-1.7V43.7h4.5c9.5,0,17.5,7.9,17.5,17.5c0,4-1.5,7.9-3.9,11c18.7,5.5,32.9,23.6,32.9,44.2
		C302,123.1,300.4,129.9,297.6,136z M263.9,61.8c0-4-1.6-6-3.7-7.5v13.6C262.5,66.4,263.5,64.2,263.9,61.8z"/>
	<path class="st0" d="M307.8,136V43.7h9.2V136H307.8z"/>
	<path class="st0" d="M364,136V89.9c0-19.1-14-34.6-32-36.6V136h-9.2V43.7h4.5c25.4,0,45.8,20.8,45.8,46.2V136H364z"/>
	<path class="st0" d="M425.2,136c-25.3,0-46.2-20.9-46.2-46.2c0-25.2,20.9-46.2,46.2-46.2v9.2c-20.2,0-37,16.9-37,37
		c0,18.7,14.2,34.4,32.4,36.6v-17h-12.5v-9.3h21.7V136H425.2z"/>
</g>
<g>
	<path class="st0" d="M510,52.6v83.2h-9.2V52.6h-12.5v-9.2h34.1v9.2H510z"/>
	<path class="st0" d="M567.1,135.8c-21.3,0-38.8-17.6-38.8-38.8V43.4h9.3v53.5c0,14.8,11,27.1,24.9,29.3V43.4h9.3v82.8
		c13.9-2.2,24.9-14.4,24.9-29.3V43.4h9.3v53.5C606,117.9,588.5,135.8,567.1,135.8z"/>
	<path class="st0" d="M618.9,94.2h-7.1V85h7.1c2.2-23.2,22.4-41.5,45.9-41.5v9.2c-18.6,0-34.4,14.3-36.6,32.4h31.4v9.3h-31.4
		c2.2,18.1,18,32.2,36.6,32.2v9.3C641.1,135.8,621.1,117.3,618.9,94.2z"/>
	<path class="st0" d="M711.9,135.8V89.6c0-19.1-14-34.6-32-36.6v82.8h-9.2V43.4h4.5c25.4,0,45.8,20.8,45.8,46.2v46.2H711.9z"/>
	<path class="st0" d="M741.8,52.6v83.2h-9.2V52.6h-12.5v-9.2h34.1v9.2H741.8z"/>
	<path class="st0" d="M760.1,135.8V43.4h9.2v92.3H760.1z"/>
	<path class="st0" d="M782.2,94.2h-7.1V85h7.1c2.2-23.2,22.4-41.5,45.9-41.5v9.2c-18.6,0-34.4,14.3-36.6,32.4h31.4v9.3h-31.4
		c2.2,18.1,18,32.2,36.6,32.2v9.3C804.4,135.8,784.4,117.3,782.2,94.2z"/>
	<path class="st0" d="M867.6,88.6c3.7,5.3,8.4,11.8,8.4,20.6c0,13.2-10.4,26.5-26.1,26.5c-5.5,0-11-1.7-15.9-4.6l4.8-7.9
		c3.4,2.2,7.5,3.4,11.4,3.4c10.5,0,16.7-9.4,16.7-17.6c0-3.7-1.1-7.1-3.3-10.3l-22-31.3c-2.1-2.9-3.2-6.4-3.2-9.4
		c0-7.3,7.2-14.5,15.1-14.5c3.2,0,6.1,0.7,8.9,2.4l-4.8,7.8c-1.1-0.9-2.6-1.1-3.9-1.1c-2.8,0-6.1,2.6-6.1,5.9c0,1.1,0.6,2.4,1.3,3.5
		L867.6,88.6z"/>
</g>
<g>
	<path class="st1" d="M464.2,146.8c0,0-21.6,18.6-50.4,32.6c0,0,32.4,18.6,50.4,37.2c0,0,21.6-23.3,50.4-37.2
		C514.6,179.3,485.8,165.4,464.2,146.8z"/>
	<path class="st1" d="M462.5,162.5c0,0-12.4,10.7-28.9,18.7c0,0,18.6,10.7,28.9,21.4c0,0,12.4-13.4,28.9-21.4
		C491.4,181.2,474.9,173.2,462.5,162.5z"/>
	<path class="st1" d="M431.8,180.9c0,0-20.5-13.2-37.6-13.2c-17.1,0-27.3,13.2-13.7,22C394.3,198.4,421.6,189.7,431.8,180.9z"/>
	<path class="st1" d="M491.3,181.4c0,0,20.5-13.2,37.6-13.2s27.3,13.2,13.7,22C528.9,199,501.5,190.2,491.3,181.4z"/>
	<path class="st1" d="M412.6,179.9c0,0-26.2-9.9-48.1-9.9s-35,9.9-17.5,16.4C364.5,193,399.5,186.5,412.6,179.9z"/>
	<path class="st1" d="M516.2,182c0,0,26.2-9.9,48.1-9.9c21.9,0,35,9.9,17.5,16.4C564.3,195.1,529.3,188.5,516.2,182z"/>
	<line class="st2" x1="336.4" y1="179.6" x2="206.8" y2="181.2"/>
	<line class="st3" x1="82.8" y1="179.4" x2="217.4" y2="181.2"/>
	<line class="st2" x1="590.7" y1="182.7" x2="720.3" y2="184.3"/>
	<line class="st3" x1="848" y1="182.5" x2="713.4" y2="184.3"/>
</g>
</svg>
