<?xml version="1.0" encoding="utf-8"?>
<!-- Generator: Adobe Illustrator 24.1.2, SVG Export Plug-In . SVG Version: 6.00 Build 0)  -->
<svg version="1.1" id="Layer_1" xmlns="http://www.w3.org/2000/svg" xmlns:xlink="http://www.w3.org/1999/xlink" x="0px" y="0px"
	 viewBox="0 0 1256 1234" style="enable-background:new 0 0 1256 1234;" xml:space="preserve">
<style type="text/css">
	.st0{fill:url(#SVGID_1_);}
	.st1{fill:#311F1F;}
	.st2{fill:#FFFFFF;}
	.st3{fill:#8F8F8F;}
	.st4{fill:#2F2F2F;}
	.st5{fill:url(#SVGID_2_);}
	.st6{fill:#6D6D6D;}
	.st7{fill:#ADADAD;}
	.st8{fill:#010101;stroke:#FFFFFF;stroke-miterlimit:10;}
	.st9{fill:#DD2523;}
</style>
<g>
	
		<linearGradient id="SVGID_1_" gradientUnits="userSpaceOnUse" x1="222.3" y1="576" x2="955.7" y2="576" gradientTransform="matrix(1 0 0 1 0 154)">
		<stop  offset="0" style="stop-color:#BF7B33"/>
		<stop  offset="0.1938" style="stop-color:#E0BD7B"/>
		<stop  offset="0.3532" style="stop-color:#FDF6BA"/>
		<stop  offset="0.4825" style="stop-color:#FBEEAA"/>
		<stop  offset="0.7344" style="stop-color:#F4D880"/>
		<stop  offset="0.7463" style="stop-color:#F4D77E"/>
		<stop  offset="0.8238" style="stop-color:#E3BE6C"/>
		<stop  offset="0.9371" style="stop-color:#CE9E56"/>
		<stop  offset="1" style="stop-color:#C6924D"/>
	</linearGradient>
	<path class="st0" d="M222.3,535.5v389h733.4v-389H222.3z"/>
	<path class="st1" d="M242,555.2v349.6h694V555.2H242z"/>
	<path class="st2" d="M403.3,570.5v19.7h155.4v-19.7H403.3z"/>
	<path class="st2" d="M582.8,570.9c-7,1.7-8.7,11.9-4.1,17c2.7,2.9,8.5,3,12.1,2c6.3-1.8,7.5-11.6,3.8-16.3
		C592.1,570.2,586.7,569.9,582.8,570.9L582.8,570.9z"/>
	<path class="st2" d="M636.1,571c-5.9,2.3-7,12.2-3.1,16.7c2.7,3.1,9.6,3.4,13.3,1.9C657.6,585.2,648.5,566.2,636.1,571 M690.8,571
		c-5.8,2-7.2,12.5-3.3,16.8c2.7,3,9.2,3.1,12.8,1.9c5.6-1.8,6.9-11,3.9-15.5C701.5,570.2,695.1,569.5,690.8,571z"/>
	<path class="st2" d="M746.3,570.9c-7,1.7-8.7,11.9-4.1,17c2.7,2.9,8.5,3,12.1,2c6.3-1.8,7.5-11.6,3.9-16.3
		C755.5,570.2,750.2,569.9,746.3,570.9z"/>
	<path class="st1" d="M427.5,574.7c-7.3,3.1-1.6,14.7,6.4,11.3C441.1,582.9,434.9,571.5,427.5,574.7z"/>
	<path class="st1" d="M462.4,574.7c-7.2,3-1.6,14.9,6.4,11.3C476,582.8,469.8,571.6,462.4,574.7z"/>
	<path class="st3" d="M468.2,574.1l0.7,0.7L468.2,574.1z"/>
	<path class="st1" d="M497.5,574.7c-7.6,3.1-1.9,14.5,5.8,11.4C510.9,583,505.2,571.5,497.5,574.7z"/>
	<path class="st1" d="M531.8,574.9c-7.5,4.1-0.3,15.3,7.1,10.9C545.4,581.9,539,570.9,531.8,574.9z"/>
	<path class="st3" d="M740.4,574.1l0.7,0.7L740.4,574.1 M758.7,574.1l0.7,0.7L758.7,574.1z"/>
	<path class="st4" d="M650.7,577.1v5.8h0.7L650.7,577.1 M685,577.1v5.8h0.7L685,577.1z"/>
	<path class="st3" d="M759.7,584.1l0.2,0.5L759.7,584.1 M470.4,584.4l0.7,0.7L470.4,584.4 M494.5,584.4l0.7,0.7L494.5,584.4z"/>
	<path class="st3" d="M741.9,588l0.7,0.7L741.9,588 M757.2,588l0.7,0.7L757.2,588 M633.9,588.7l0.7,0.7L633.9,588.7 M701.8,588.7
		l0.7,0.7L701.8,588.7 M580.6,589.5l0.7,0.7L580.6,589.5 M591.6,589.5l0.7,0.7L591.6,589.5z"/>
	
		<linearGradient id="SVGID_2_" gradientUnits="userSpaceOnUse" x1="270.8387" y1="566.9" x2="909.485" y2="566.9" gradientTransform="matrix(1 0 0 1 0 154)">
		<stop  offset="3.482590e-02" style="stop-color:#A98D58"/>
		<stop  offset="0.1001" style="stop-color:#B7995F"/>
		<stop  offset="0.2238" style="stop-color:#DDB771"/>
		<stop  offset="0.3085" style="stop-color:#FACF7F"/>
		<stop  offset="0.5022" style="stop-color:#FCE88C"/>
		<stop  offset="0.6269" style="stop-color:#FDFA96"/>
		<stop  offset="0.7481" style="stop-color:#F6E18E"/>
		<stop  offset="1" style="stop-color:#E6A37B"/>
	</linearGradient>
	<path class="st5" d="M271.2,592.4v55.5h10.9v17.5c-10.6,2.1-14.5,16.4-8.3,24.8c2.8,3.8,8,4.2,8.3,9.5c0.6,14.4-3.5,32.8,0.5,46.7
		c1.6,5.4,5.6,10.5,8.4,15.3c7.5,13,16.7,25.8,22.9,39.4c1.8,3.9-2,7-0.4,11.7l-8,3.6l2.2,5.8l9.5-5.1c2.6,8.1,8.6,16,12.8,23.4
		c1.2,2.1,2.9,6.8,5.6,7.4c5.2,1.1,15.8-8.5,20.3-11L332.5,796c-1.6,0.3-4,1.5-5.7,1.1c-2.3-0.7-3.7-4.3-4.7-6.2
		c-3.5-6.1-7.1-12.1-10.6-18.2c-5.6-9.7-14.9-20.7-18-31.4c-1.3-4.6-0.4-10.6-0.4-15.3c0-8.9-1.3-18.9,0.1-27.7
		c1.1-6.9,9.3-8.9,9.4-17.5c0.1-9.1-6.2-9.9-9-16.9c-1.7-4.4-0.4-11.3-0.4-16h11.7v-55.5L271.2,592.4 M875.5,592.4v55.5h11.7
		c0,4.7,1.3,11.6-0.4,16c-2.7,6.8-9.3,8-9,16.9c0.3,8.1,7.5,9.8,9.2,16.1c2.5,9.1,0.2,21.9,0.2,31.3c0,4.3,0.8,9.7-0.5,13.9
		c-2.5,7.8-8.7,15.6-12.9,22.6c-4.6,7.8-9,15.6-13.6,23.4c-1.5,2.5-3.3,7.5-6,8.8c-1.9,0.9-4-0.6-5.7-1.5L825.1,837l20.4,12.4
		l12.9-22.6l5.8-8.3l8.3,3.9l2.2-5.8l-7.3-3.6c1.1-4.3-2.5-7.5-1.2-10.9c7.6-19.4,26.3-35.4,32.1-55.5c4-13.9-0.2-32.3,0.5-46.7
		c0.2-5.2,5.6-6.3,8.2-10.2c5.4-8.1,1.7-22.1-8.2-24.1v-17.5H909v-55.5h-33.5V592.4z"/>
	<path class="st2" d="M589.4,780.7c29.2,75.4,130.7,98.7,193.4,51.2c38.5-29.1,53.9-75.8,48-122.7c-1.7-13.4-5.9-26.6-12-38.7
		c-37.4-73.8-139.3-88.9-199.4-34.4c-12.3,11.2-25.2,26.8-29.9,43.1c-4.4-7.8-7.7-16-12.9-23.4c-14-20-34.3-35.8-57.1-44.5
		c-79-30-169.2,24-172.9,110.2c-1,23.2,2.6,47.1,13.3,67.9c30,58.1,101.9,82.2,161.8,57.9c21.2-8.6,40.4-23.3,53.7-41.9
		C580.8,797.6,584.5,789,589.4,780.7L589.4,780.7z"/>
	<path class="st1" d="M474.1,613.6v96.3l10.2,4.4h0.7c12.6-17.3,22.8-37.1,33.9-55.5c5-8.4,13.6-18.1,15.8-27.7
		C514.5,621.5,497,613.6,474.1,613.6z"/>
	<path class="st1" d="M690.8,721.6l9.5-7.3c-8.9-21.4-20.2-41.8-30.1-62.8c-2.6-5.6-5.3-11.2-8-16.8c-0.9-1.9-1.9-5.4-3.8-6.5
		c-3-1.6-8.8,3-11.3,4.4c-11.1,6.3-21.3,14.8-29.3,24.7c-1.9,2.4-8.1,8.1-6.9,11.5c1.8,5.3,16.2,11.7,20.9,14.6
		C651.3,695.6,670,711.7,690.8,721.6z"/>
	<path class="st1" d="M470.4,720.4c-12.9,2.8-6.8,22,6.6,18.3C488.4,735.6,482,718,470.4,720.4z"/>
	<path class="st1" d="M703.2,721.3c-12,4.1-6.3,22.7,5.1,19.3C721.3,736.8,715.3,717.3,703.2,721.3z"/>
	<path class="st6" d="M713.4,736.9l0.7,0.7L713.4,736.9z"/>
	<path class="st7" d="M469.7,739.1v0.7h5.8L469.7,739.1z"/>
	<path class="st1" d="M460.9,743.5L427.3,799l-16.1,27.7c18.4,11.3,39.6,17.8,61.3,18.2v-97.1L460.9,743.5 M709.1,750l13.7,29.2
		l27.9,57.7c14.7-4.2,29.3-16.3,39-27.7c2.3-2.7,9.2-9.1,8.5-13c-0.4-2.2-3.5-3.6-5.2-4.8c-5.1-3.4-10.2-6.6-15.3-10
		c-13.6-9-27.2-18-40.9-26.8c-4.4-2.9-11.5-10-16.8-10.4C716.7,743.9,712.1,748.6,709.1,750L709.1,750z"/>
	<path class="st8" d="M245.4,936.8H391c4,0,7.2,3.2,7.2,7.1v143.6c0,3.9-3.2,7.1-7.2,7.1H245.4c-4,0-7.2-3.2-7.2-7.1V943.9
		C238.2,940,241.5,936.8,245.4,936.8z"/>
	<path class="st8" d="M425.5,936.8h145.6c4,0,7.2,3.2,7.2,7.1v143.6c0,3.9-3.2,7.1-7.2,7.1H425.5c-4,0-7.2-3.2-7.2-7.1V943.9
		C418.3,940,421.5,936.8,425.5,936.8z"/>
	<path class="st8" d="M605.5,936.8h145.6c4,0,7.2,3.2,7.2,7.1v143.6c0,3.9-3.2,7.1-7.2,7.1H605.5c-4,0-7.2-3.2-7.2-7.1V943.9
		C598.3,940,601.6,936.8,605.5,936.8z"/>
	<path class="st8" d="M785.6,936.8h145.6c4,0,7.2,3.2,7.2,7.1v143.6c0,3.9-3.2,7.1-7.2,7.1H785.6c-4,0-7.2-3.2-7.2-7.1V943.9
		C778.4,940,781.6,936.8,785.6,936.8z"/>
	<g>
		<path class="st9" d="M251.9,946.1h129.6c4.6,0,8.4,3.7,8.4,8.3v127.8c0,4.6-3.8,8.3-8.4,8.3H251.9c-4.6,0-8.4-3.7-8.4-8.3V954.4
			C243.5,949.8,247.3,946.1,251.9,946.1z"/>
		<path class="st9" d="M433.6,943.3h129.6c4.6,0,8.4,3.7,8.4,8.3v127.8c0,4.6-3.8,8.3-8.4,8.3H433.6c-4.6,0-8.4-3.7-8.4-8.3V951.6
			C425.2,947,428.9,943.3,433.6,943.3z"/>
		<path class="st9" d="M613.8,943.3h129.6c4.6,0,8.4,3.7,8.4,8.3v127.8c0,4.6-3.8,8.3-8.4,8.3H613.8c-4.6,0-8.4-3.7-8.4-8.3V951.6
			C605.3,947,609.1,943.3,613.8,943.3z"/>
		<path class="st9" d="M792.5,944.7h129.6c4.6,0,8.4,3.7,8.4,8.3v127.8c0,4.6-3.8,8.3-8.4,8.3H792.5c-4.6,0-8.4-3.7-8.4-8.3V953
			C784.1,948.4,787.9,944.7,792.5,944.7z"/>
	</g>
</g>
</svg>
